<?xml version="1.0" standalone="no"?>
<!DOCTYPE svg PUBLIC "-//W3C//DTD SVG 20010904//EN"
 "http://www.w3.org/TR/2001/REC-SVG-20010904/DTD/svg10.dtd">
<svg version="1.0" xmlns="http://www.w3.org/2000/svg"
 width="512.000000pt" height="512.000000pt" viewBox="0 0 512.000000 512.000000"
 preserveAspectRatio="xMidYMid meet">

<g transform="translate(0.000000,512.000000) scale(0.100000,-0.100000)"
fill="#051583" stroke="none">
<path d="M1022 5109 c-128 -22 -264 -81 -372 -164 -323 -248 -414 -714 -207
-1060 23 -38 43 -73 45 -76 1 -3 -36 -9 -82 -13 -47 -3 -110 -15 -140 -26
-105 -40 -194 -129 -238 -238 l-23 -57 -3 -1294 c-1 -856 1 -1313 8 -1350 23
-124 113 -239 230 -295 l65 -31 508 -3 507 -3 0 -164 0 -165 -162 -2 -163 -3
-3 -83 -3 -82 1571 0 1571 0 -3 82 -3 83 -162 3 -163 2 0 165 0 164 508 3 507
3 65 31 c117 56 207 171 230 295 7 37 9 494 8 1350 l-3 1294 -23 57 c-44 109
-131 196 -240 240 -56 22 -66 23 -512 26 l-456 3 -11 69 c-38 243 -243 420
-486 420 -245 0 -448 -173 -489 -416 l-12 -74 -534 0 -534 0 22 33 c36 53 97
188 115 252 26 95 31 265 11 366 -89 437 -509 730 -944 658z m338 -187 c165
-54 307 -178 383 -333 55 -115 70 -177 70 -294 0 -116 -14 -178 -70 -294 -37
-77 -59 -108 -122 -172 -64 -63 -95 -85 -172 -122 -116 -56 -179 -71 -294 -70
-302 1 -562 201 -635 489 -24 94 -26 232 -4 324 54 230 249 427 479 484 88 22
280 16 365 -12z m2157 -822 c54 -24 99 -60 136 -110 81 -111 78 -281 -7 -393
-36 -46 -118 -100 -178 -117 -144 -39 -307 37 -378 176 -22 42 -25 62 -25 144
0 83 4 101 27 145 26 51 94 121 139 146 76 41 204 45 286 9z m-2803 -500 c59
-40 140 -77 223 -101 86 -25 268 -36 342 -20 30 6 56 10 58 8 2 -3 67 -179
145 -391 l141 -388 -74 -66 c-126 -116 -194 -243 -220 -412 -46 -302 153 -616
451 -711 93 -30 246 -36 344 -14 246 54 447 255 502 501 41 185 -5 390 -121
539 l-44 57 345 379 c190 208 347 379 348 379 2 0 24 -9 48 -20 119 -52 274
-45 402 19 l78 40 242 -211 c132 -116 242 -212 244 -214 2 -1 -7 -30 -19 -65
-87 -259 170 -504 427 -408 221 83 282 371 114 539 -91 91 -243 122 -354 72
-48 -22 -50 -22 -70 -4 -12 10 -113 99 -226 197 -113 98 -213 186 -224 196
-18 17 -18 18 9 73 l28 57 467 -3 467 -3 49 -30 c30 -19 60 -49 79 -79 l30
-49 3 -1154 2 -1153 -2390 0 -2390 0 0 1140 c0 1241 -3 1170 55 1246 13 18 48
44 77 58 49 25 60 26 209 26 l158 0 45 -30z m2221 -2 c7 -18 26 -51 42 -73 16
-22 32 -45 36 -52 5 -7 -110 -141 -304 -355 -171 -189 -326 -358 -343 -376
l-32 -33 -65 30 c-132 62 -290 81 -427 52 -34 -8 -65 -12 -68 -9 -7 8 -274
741 -274 754 0 6 13 17 28 23 15 6 48 25 72 41 l45 30 638 0 638 0 14 -32z
m1606 -651 c97 -65 108 -199 23 -266 -108 -85 -264 -12 -266 123 -2 127 141
212 243 143z m-2430 -323 c176 -52 304 -185 351 -364 42 -161 -8 -336 -132
-460 -196 -196 -502 -195 -697 1 -156 157 -188 405 -77 594 36 63 118 144 180
179 109 63 263 83 375 50z m2839 -1704 c0 -110 -42 -183 -135 -233 l-40 -22
-2215 0 -2215 0 -40 22 c-93 50 -135 123 -135 233 l0 70 2390 0 2390 0 0 -70z
m-1320 -585 l0 -165 -1070 0 -1070 0 0 165 0 165 1070 0 1070 0 0 -165z"/>
<path d="M3800 1735 l0 -85 495 0 495 0 0 85 0 85 -495 0 -495 0 0 -85z"/>
<path d="M3800 1405 l0 -85 330 0 330 0 0 85 0 85 -330 0 -330 0 0 -85z"/>
<path d="M4624 1477 c-3 -8 -4 -45 -2 -83 l3 -69 83 -3 82 -3 0 86 0 85 -80 0
c-58 0 -82 -4 -86 -13z"/>
</g>
</svg>
