<svg version="1.1" xmlns="http://www.w3.org/2000/svg" xmlns:xlink="http://www.w3.org/1999/xlink" width="512.000000pt" height="512.000000pt" viewBox="0,0,256,256"><g fill="#051583" fill-rule="nonzero" stroke="none" stroke-width="1" stroke-linecap="butt" stroke-linejoin="miter" stroke-miterlimit="10" stroke-dasharray="" stroke-dashoffset="0" font-family="none" font-weight="none" font-size="none" text-anchor="none" style="mix-blend-mode: normal"><g transform="translate(0.00109,-0.05655) scale(0.5,0.5)"><g transform="translate(0,512) scale(0.1,-0.1)"><path d="M2290,5113c-90,-9 -261,-47 -357,-78c-283,-93 -557,-274 -755,-499c-510,-577 -581,-1423 -174,-2070l56,-89l-24,-61c-63,-156 -33,-308 83,-422c185,-183 496,-124 610,116c23,48 26,68 26,155c0,89 -3,106 -28,156c-67,137 -178,211 -325,218c-59,2 -98,-2 -134,-14c-60,-19 -53,-25 -121,90c-241,408 -271,936 -80,1378c223,513 712,871 1263,922c83,8 106,17 132,49c34,41 16,116 -33,142c-27,13 -62,15 -139,7zM1474,2316c80,-47 109,-151 66,-236c-54,-106 -205,-126 -287,-38c-78,83 -61,210 36,275c48,32 129,32 185,-1z"></path><path d="M2765,5056c-34,-34 -41,-71 -21,-113c19,-39 67,-64 109,-56c39,8 77,57 77,100c0,80 -109,125 -165,69z"></path><path d="M3512,4980c-104,-15 -212,-90 -268,-185c-108,-185 -34,-428 160,-527c78,-40 204,-50 286,-23c28,9 53,15 54,14c17,-19 97,-161 127,-225c159,-337 185,-768 69,-1124c-155,-475 -519,-838 -993,-989c-53,-17 -102,-31 -107,-31c-6,0 -10,98 -10,268v268l63,27c275,120 493,380 574,684c21,82 26,121 27,238c1,192 -27,313 -110,475c-225,437 -720,651 -1192,514c-279,-81 -511,-279 -636,-545c-74,-157 -91,-235 -91,-434c0,-147 3,-182 23,-255c79,-291 274,-527 545,-661l87,-43v-729c0,-460 -4,-726 -10,-722c-5,3 -38,54 -74,114c-72,118 -139,190 -213,223c-39,18 -67,22 -148,23c-91,0 -106,-3 -159,-29c-152,-74 -239,-244 -206,-402c17,-80 397,-853 435,-882c32,-26 65,-28 105,-7c35,18 50,43 50,84c0,18 -71,173 -190,413c-105,211 -196,400 -202,420c-21,71 20,156 94,194c45,24 127,15 170,-18c22,-17 91,-120 202,-302c168,-277 191,-306 243,-306c36,0 81,38 92,77c7,26 11,416 11,1204v1166l23,33c63,94 194,98 259,8l23,-33l5,-995c3,-547 9,-1003 13,-1012c27,-54 112,-64 158,-19l29,29v289c0,279 1,289 23,328c24,43 91,85 136,85c42,0 109,-39 133,-78c22,-36 23,-45 28,-355l5,-319l24,-19c52,-42 111,-34 149,21c22,32 22,38 22,335c0,297 0,303 23,335c37,55 72,75 132,75c60,0 95,-20 133,-75c22,-32 22,-38 22,-337c0,-325 3,-348 51,-374c38,-20 89,-13 118,15l26,26l5,219c5,203 7,222 26,248c73,98 195,98 268,0c21,-28 21,-37 23,-665c2,-477 6,-643 15,-660c15,-28 57,-52 92,-52c14,0 40,13 58,29l33,29l3,633c3,705 3,709 -64,806c-91,132 -259,187 -414,133c-30,-10 -55,-18 -55,-17c0,1 -11,24 -25,51c-73,145 -238,221 -396,183c-44,-11 -89,-31 -124,-56l-56,-39l-28,23l-29,23l80,40c290,146 581,428 729,704c151,285 215,535 215,843c0,238 -38,440 -122,650c-38,95 -120,250 -172,325l-24,34l26,56c23,48 26,68 26,155c0,87 -3,107 -27,157c-49,106 -161,196 -263,213c-76,12 -90,13 -143,5zM3615,4779c85,-24 135,-89 135,-175c0,-127 -133,-211 -253,-160c-96,39 -133,171 -73,258c34,50 71,72 146,87c3,0 23,-4 45,-10zM2680,4179c283,-71 514,-300 592,-587c30,-109 30,-305 0,-415c-46,-168 -159,-337 -294,-440c-65,-49 -127,-87 -143,-87c-3,0 -5,66 -5,147c0,105 -5,163 -16,205l-16,58l32,37c18,20 46,64 61,98c104,222 8,490 -217,602c-63,30 -85,36 -164,41c-112,6 -195,-14 -278,-68c-229,-147 -279,-457 -110,-673l30,-37l-16,-47c-12,-35 -16,-86 -16,-199c0,-84 -4,-155 -9,-158c-17,-11 -157,92 -228,167c-87,92 -142,183 -185,307c-32,92 -33,100 -33,255c0,155 1,163 33,254c48,138 101,222 206,326c212,210 489,286 776,214zM2585,3616c56,-25 110,-81 132,-135c23,-54 20,-151 -6,-204c-32,-67 -43,-72 -93,-53c-99,40 -208,40 -294,-1c-32,-16 -34,-16 -53,8c-28,33 -51,104 -51,155c0,185 196,309 365,230z"></path></g></g></g></svg>