<svg width="32" height="32" viewBox="0 0 32 32" fill="none" xmlns="http://www.w3.org/2000/svg">
<g id="folder_supervised">
<mask id="mask0_34_453" style="mask-type:alpha" maskUnits="userSpaceOnUse" x="0" y="0" width="32" height="32">
<rect id="Bounding box" width="32" height="32" fill="#D9D9D9"/>
</mask>
<g mask="url(#mask0_34_453)">
<path id="folder_supervised_2" d="M5.33335 26.6666C4.60002 26.6666 3.97224 26.4055 3.45002 25.8833C2.9278 25.3611 2.66669 24.7333 2.66669 24V7.99998C2.66669 7.26665 2.9278 6.63887 3.45002 6.11665C3.97224 5.59442 4.60002 5.33331 5.33335 5.33331H13.3334L16 7.99998H26.6667C27.4 7.99998 28.0278 8.26109 28.55 8.78331C29.0722 9.30554 29.3334 9.93331 29.3334 10.6666V15C28.9334 14.7111 28.5111 14.4666 28.0667 14.2666C27.6222 14.0666 27.1556 13.8889 26.6667 13.7333V10.6666H5.33335V24H14.7667C14.8334 24.4666 14.9334 24.9222 15.0667 25.3666C15.2 25.8111 15.3667 26.2444 15.5667 26.6666H5.33335ZM18.6667 26.6666V25.9333C18.6667 24.9333 19.1556 24.1389 20.1334 23.55C21.1111 22.9611 22.4 22.6666 24 22.6666C25.6 22.6666 26.8889 22.9611 27.8667 23.55C28.8445 24.1389 29.3334 24.9333 29.3334 25.9333V26.6666H18.6667ZM24 21.3333C23.2667 21.3333 22.6389 21.0722 22.1167 20.55C21.5945 20.0278 21.3334 19.4 21.3334 18.6666C21.3334 17.9333 21.5945 17.3055 22.1167 16.7833C22.6389 16.2611 23.2667 16 24 16C24.7334 16 25.3611 16.2611 25.8834 16.7833C26.4056 17.3055 26.6667 17.9333 26.6667 18.6666C26.6667 19.4 26.4056 20.0278 25.8834 20.55C25.3611 21.0722 24.7334 21.3333 24 21.3333Z" fill="#051583"/>
</g>
</g>
</svg>
