<svg width="32" height="32" viewBox="0 0 32 32" fill="none" xmlns="http://www.w3.org/2000/svg">
<g id="data_exploration">
<mask id="mask0_34_473" style="mask-type:alpha" maskUnits="userSpaceOnUse" x="0" y="0" width="32" height="32">
<rect id="Bounding box" width="32" height="32" fill="#D9D9D9"/>
</mask>
<g mask="url(#mask0_34_473)">
<path id="data_exploration_2" d="M16 29.3333C14.1556 29.3333 12.4222 28.9833 10.8 28.2833C9.1778 27.5833 7.76669 26.6333 6.56669 25.4333C5.36669 24.2333 4.41669 22.8222 3.71669 21.2C3.01669 19.5778 2.66669 17.8444 2.66669 16C2.66669 14.1555 3.01669 12.4222 3.71669 10.8C4.41669 9.17777 5.36669 7.76666 6.56669 6.56666C7.76669 5.36666 9.1778 4.41666 10.8 3.71666C12.4222 3.01666 14.1556 2.66666 16 2.66666C17.8445 2.66666 19.5778 3.01666 21.2 3.71666C22.8222 4.41666 24.2334 5.36666 25.4334 6.56666C26.6334 7.76666 27.5834 9.17777 28.2834 10.8C28.9834 12.4222 29.3334 14.1555 29.3334 16V26.6667C29.3334 27.4 29.0722 28.0278 28.55 28.55C28.0278 29.0722 27.4 29.3333 26.6667 29.3333H16ZM16 26.6667C18.9778 26.6667 21.5 25.6333 23.5667 23.5667C25.6334 21.5 26.6667 18.9778 26.6667 16C26.6667 13.0222 25.6334 10.5 23.5667 8.43332C21.5 6.36666 18.9778 5.33332 16 5.33332C13.0222 5.33332 10.5 6.36666 8.43335 8.43332C6.36669 10.5 5.33335 13.0222 5.33335 16C5.33335 16.5111 5.36669 17.0111 5.43335 17.5C5.50002 17.9889 5.60002 18.4667 5.73335 18.9333L10.6667 14L15.0667 17.7L19.4334 13.3333H17.3334V10.6667H24V17.3333H21.3334V15.2333L15.2 21.3333L10.8334 17.6L6.90002 21.5333C7.83335 23.0667 9.09446 24.3055 10.6834 25.25C12.2722 26.1944 14.0445 26.6667 16 26.6667ZM26 27.3333C26.3778 27.3333 26.6945 27.2055 26.95 26.95C27.2056 26.6944 27.3334 26.3778 27.3334 26C27.3334 25.6222 27.2056 25.3055 26.95 25.05C26.6945 24.7944 26.3778 24.6667 26 24.6667C25.6222 24.6667 25.3056 24.7944 25.05 25.05C24.7945 25.3055 24.6667 25.6222 24.6667 26C24.6667 26.3778 24.7945 26.6944 25.05 26.95C25.3056 27.2055 25.6222 27.3333 26 27.3333Z" fill="#051583"/>
</g>
</g>
</svg>
