<svg width="32" height="32" viewBox="0 0 32 32" fill="none" xmlns="http://www.w3.org/2000/svg">
<g id="casino">
<mask id="mask0_34_448" style="mask-type:alpha" maskUnits="userSpaceOnUse" x="0" y="0" width="32" height="32">
<rect id="Bounding box" width="32" height="32" fill="#D9D9D9"/>
</mask>
<g mask="url(#mask0_34_448)">
<path id="casino_2" d="M10 24C10.5556 24 11.0278 23.8056 11.4167 23.4167C11.8056 23.0278 12 22.5556 12 22C12 21.4444 11.8056 20.9722 11.4167 20.5833C11.0278 20.1944 10.5556 20 10 20C9.44444 20 8.97222 20.1944 8.58333 20.5833C8.19444 20.9722 8 21.4444 8 22C8 22.5556 8.19444 23.0278 8.58333 23.4167C8.97222 23.8056 9.44444 24 10 24ZM10 12C10.5556 12 11.0278 11.8056 11.4167 11.4167C11.8056 11.0278 12 10.5556 12 10C12 9.44444 11.8056 8.97222 11.4167 8.58333C11.0278 8.19444 10.5556 8 10 8C9.44444 8 8.97222 8.19444 8.58333 8.58333C8.19444 8.97222 8 9.44444 8 10C8 10.5556 8.19444 11.0278 8.58333 11.4167C8.97222 11.8056 9.44444 12 10 12ZM16 18C16.5556 18 17.0278 17.8056 17.4167 17.4167C17.8056 17.0278 18 16.5556 18 16C18 15.4444 17.8056 14.9722 17.4167 14.5833C17.0278 14.1944 16.5556 14 16 14C15.4444 14 14.9722 14.1944 14.5833 14.5833C14.1944 14.9722 14 15.4444 14 16C14 16.5556 14.1944 17.0278 14.5833 17.4167C14.9722 17.8056 15.4444 18 16 18ZM22 24C22.5556 24 23.0278 23.8056 23.4167 23.4167C23.8056 23.0278 24 22.5556 24 22C24 21.4444 23.8056 20.9722 23.4167 20.5833C23.0278 20.1944 22.5556 20 22 20C21.4444 20 20.9722 20.1944 20.5833 20.5833C20.1944 20.9722 20 21.4444 20 22C20 22.5556 20.1944 23.0278 20.5833 23.4167C20.9722 23.8056 21.4444 24 22 24ZM22 12C22.5556 12 23.0278 11.8056 23.4167 11.4167C23.8056 11.0278 24 10.5556 24 10C24 9.44444 23.8056 8.97222 23.4167 8.58333C23.0278 8.19444 22.5556 8 22 8C21.4444 8 20.9722 8.19444 20.5833 8.58333C20.1944 8.97222 20 9.44444 20 10C20 10.5556 20.1944 11.0278 20.5833 11.4167C20.9722 11.8056 21.4444 12 22 12ZM6.66667 28C5.93333 28 5.30556 27.7389 4.78333 27.2167C4.26111 26.6944 4 26.0667 4 25.3333V6.66667C4 5.93333 4.26111 5.30556 4.78333 4.78333C5.30556 4.26111 5.93333 4 6.66667 4H25.3333C26.0667 4 26.6944 4.26111 27.2167 4.78333C27.7389 5.30556 28 5.93333 28 6.66667V25.3333C28 26.0667 27.7389 26.6944 27.2167 27.2167C26.6944 27.7389 26.0667 28 25.3333 28H6.66667ZM6.66667 25.3333H25.3333V6.66667H6.66667V25.3333Z" fill="#051583"/>
</g>
</g>
</svg>
