<svg width="32" height="32" viewBox="0 0 32 32" fill="none" xmlns="http://www.w3.org/2000/svg">
<g id="demography">
<mask id="mask0_34_478" style="mask-type:alpha" maskUnits="userSpaceOnUse" x="0" y="0" width="32" height="32">
<rect id="Bounding box" width="32" height="32" fill="#D9D9D9"/>
</mask>
<g mask="url(#mask0_34_478)">
<path id="demography_2" d="M24 24C24.5556 24 25.0278 23.8056 25.4167 23.4167C25.8056 23.0278 26 22.5556 26 22C26 21.4444 25.8056 20.9722 25.4167 20.5833C25.0278 20.1944 24.5556 20 24 20C23.4444 20 22.9722 20.1944 22.5833 20.5833C22.1944 20.9722 22 21.4444 22 22C22 22.5556 22.1944 23.0278 22.5833 23.4167C22.9722 23.8056 23.4444 24 24 24ZM24 28C24.6667 28 25.2889 27.8444 25.8667 27.5333C26.4444 27.2222 26.9222 26.7889 27.3 26.2333C26.7889 25.9222 26.2556 25.6944 25.7 25.55C25.1444 25.4056 24.5778 25.3333 24 25.3333C23.4222 25.3333 22.8556 25.4056 22.3 25.55C21.7444 25.6944 21.2111 25.9222 20.7 26.2333C21.0778 26.7889 21.5556 27.2222 22.1333 27.5333C22.7111 27.8444 23.3333 28 24 28ZM6.66667 28C5.93333 28 5.30556 27.7389 4.78333 27.2167C4.26111 26.6944 4 26.0667 4 25.3333V6.66667C4 5.93333 4.26111 5.30556 4.78333 4.78333C5.30556 4.26111 5.93333 4 6.66667 4H25.3333C26.0667 4 26.6944 4.26111 27.2167 4.78333C27.7389 5.30556 28 5.93333 28 6.66667V15.6C27.5778 15.4 27.1444 15.2278 26.7 15.0833C26.2556 14.9389 25.8 14.8333 25.3333 14.7667V6.66667H6.66667V25.3333H14.7333C14.8 25.8222 14.9056 26.2889 15.05 26.7333C15.1944 27.1778 15.3667 27.6 15.5667 28H6.66667ZM6.66667 25.3333V6.66667V14.7667V14.6667V25.3333ZM9.33333 22.6667H14.7667C14.8333 22.2 14.9389 21.7444 15.0833 21.3C15.2278 20.8556 15.3889 20.4222 15.5667 20H9.33333V22.6667ZM9.33333 17.3333H17.4667C18.1778 16.6667 18.9722 16.1111 19.85 15.6667C20.7278 15.2222 21.6667 14.9222 22.6667 14.7667V14.6667H9.33333V17.3333ZM9.33333 12H22.6667V9.33333H9.33333V12ZM24 30.6667C22.1556 30.6667 20.5833 30.0167 19.2833 28.7167C17.9833 27.4167 17.3333 25.8444 17.3333 24C17.3333 22.1556 17.9833 20.5833 19.2833 19.2833C20.5833 17.9833 22.1556 17.3333 24 17.3333C25.8444 17.3333 27.4167 17.9833 28.7167 19.2833C30.0167 20.5833 30.6667 22.1556 30.6667 24C30.6667 25.8444 30.0167 27.4167 28.7167 28.7167C27.4167 30.0167 25.8444 30.6667 24 30.6667Z" fill="#051583"/>
</g>
</g>
</svg>
