<svg width="32" height="32" viewBox="0 0 32 32" fill="none" xmlns="http://www.w3.org/2000/svg">
<g id="airline_stops">
<mask id="mask0_34_443" style="mask-type:alpha" maskUnits="userSpaceOnUse" x="0" y="0" width="32" height="32">
<rect id="Bounding box" width="32" height="32" fill="#D9D9D9"/>
</mask>
<g mask="url(#mask0_34_443)">
<path id="airline_stops_2" d="M12 25.3334V22.6667H14.6667C14.3334 19.6445 13.0278 17.1111 10.75 15.0667C8.47224 13.0222 5.7778 12 2.66669 12V9.33335C5.62224 9.33335 8.28335 10.1056 10.65 11.65C13.0167 13.1945 14.8 15.2222 16 17.7334C16.9334 15.7334 18.1389 14.0445 19.6167 12.6667C21.0945 11.2889 22.5445 10.1778 23.9667 9.33335H18.6667V6.66669H28V16H25.3334V11.6C23.6889 12.6 22.0278 14 20.35 15.8C18.6722 17.6 17.6667 19.8889 17.3334 22.6667H20V25.3334H12Z" fill="#051583"/>
</g>
</g>
</svg>
